<?xml version="1.0" encoding="UTF-8" standalone="no"?>
<!-- Created with Inkscape (http://www.inkscape.org/) -->

<svg
   xmlns:dc="http://purl.org/dc/elements/1.1/"
   xmlns:cc="http://creativecommons.org/ns#"
   xmlns:rdf="http://www.w3.org/1999/02/22-rdf-syntax-ns#"
   xmlns:svg="http://www.w3.org/2000/svg"
   xmlns="http://www.w3.org/2000/svg"
   xmlns:sodipodi="http://sodipodi.sourceforge.net/DTD/sodipodi-0.dtd"
   xmlns:inkscape="http://www.inkscape.org/namespaces/inkscape"
   width="250"
   height="250"
   id="svg2"
   version="1.1"
   inkscape:version="0.48.3.1 r9886"
   sodipodi:docname="outlet_bg.svg"
   inkscape:export-filename="/home/oly/src/net-powerctrl/netpowerctrl/res/drawable/outlet_bg.png"
   inkscape:export-xdpi="944.59998"
   inkscape:export-ydpi="944.59998">
  <defs
     id="defs4" />
  <sodipodi:namedview
     id="base"
     pagecolor="#ffffff"
     bordercolor="#666666"
     borderopacity="1.0"
     inkscape:pageopacity="0"
     inkscape:pageshadow="2"
     inkscape:zoom="2.8284271"
     inkscape:cx="124.38032"
     inkscape:cy="112.02191"
     inkscape:document-units="px"
     inkscape:current-layer="layer1"
     showgrid="false"
     showguides="true"
     inkscape:guide-bbox="true"
     inkscape:window-width="1680"
     inkscape:window-height="998"
     inkscape:window-x="-8"
     inkscape:window-y="-8"
     inkscape:window-maximized="1"
     showborder="true"
     borderlayer="false"
     inkscape:snap-grids="true"
     inkscape:snap-to-guides="true"
     inkscape:snap-nodes="true"
     inkscape:snap-global="true"
     inkscape:snap-bbox="true"
     inkscape:snap-object-midpoints="true"
     fit-margin-top="0"
     fit-margin-left="0"
     fit-margin-right="0"
     fit-margin-bottom="0" />
  <metadata
     id="metadata7">
    <rdf:RDF>
      <cc:Work
         rdf:about="">
        <dc:format>image/svg+xml</dc:format>
        <dc:type
           rdf:resource="http://purl.org/dc/dcmitype/StillImage" />
        <dc:title />
      </cc:Work>
    </rdf:RDF>
  </metadata>
  <g
     inkscape:label="Ebene 1"
     inkscape:groupmode="layer"
     id="layer1"
     transform="translate(-11.746476,-789.85683)"
     style="opacity:1">
    <path
       style="font-size:medium;font-style:normal;font-variant:normal;font-weight:normal;font-stretch:normal;text-indent:0;text-align:start;text-decoration:none;line-height:normal;letter-spacing:normal;word-spacing:normal;text-transform:none;direction:ltr;block-progression:tb;writing-mode:lr-tb;text-anchor:start;baseline-shift:baseline;color:#000000;fill:#db9800;fill-opacity:0.09803922;stroke:none;stroke-width:1.47899997;marker:none;visibility:visible;display:inline;overflow:visible;enable-background:accumulate;font-family:Sans;-inkscape-font-specification:Sans"
       d="m 161.07979,1028.5247 c -4.50691,0 -8.625,4.0869 -8.625,8.5938 l 0,12.25 c 2.87658,0.1942 5.79143,0.2812 8.71875,0.2812 2.85352,0 5.69452,-0.097 8.5,-0.2812 l 0,-12.25 c 0,-4.5069 -4.08683,-8.5938 -8.59375,-8.5938 z"
       id="path4416"
       inkscape:connector-curvature="0" />
    <path
       style="font-size:medium;font-style:normal;font-variant:normal;font-weight:normal;font-stretch:normal;text-indent:0;text-align:start;text-decoration:none;line-height:normal;letter-spacing:normal;word-spacing:normal;text-transform:none;direction:ltr;block-progression:tb;writing-mode:lr-tb;text-anchor:start;baseline-shift:baseline;color:#000000;fill:#db9800;fill-opacity:0.09803922;stroke:none;stroke-width:1.47899997;marker:none;visibility:visible;display:inline;overflow:visible;enable-background:accumulate;font-family:Sans;-inkscape-font-specification:Sans"
       d="m 161.17354,802.14972 c -2.93606,0 -5.83351,0.0872 -8.71875,0.28125 l 0,13.75 c 0,4.50692 4.11809,8.625 8.625,8.625 4.50692,0 8.59375,-4.11808 8.59375,-8.625 l 0,-13.75 c -2.80531,-0.18343 -5.64669,-0.28125 -8.5,-0.28125 z"
       id="path3958"
       inkscape:connector-curvature="0" />
    <path
       style="font-size:medium;font-style:normal;font-variant:normal;font-weight:normal;font-stretch:normal;text-indent:0;text-align:start;text-decoration:none;line-height:normal;letter-spacing:normal;word-spacing:normal;text-transform:none;direction:ltr;block-progression:tb;writing-mode:lr-tb;text-anchor:start;baseline-shift:baseline;color:#000000;fill:#000000;fill-opacity:0.09803922;stroke:none;stroke-width:3.98243475;marker:none;visibility:visible;display:inline;overflow:visible;enable-background:accumulate;font-family:Sans;-inkscape-font-specification:Sans"
       d="m 161.17354,791.11847 c -75.379065,0 -136.687499,60.21354 -136.687499,134.59375 0,74.38028 61.308434,134.96878 136.687499,134.96878 75.37907,0 136.6875,-60.5885 136.6875,-134.96878 0,-74.38021 -61.30843,-134.59375 -136.6875,-134.59375 z m 0,11.03125 c 46.32262,0 86.70939,24.55876 108.5,61.15625 l -0.25,44.78125 a 1.9914165,1.9914165 0 0 0 2,2 l 14.40625,0 c 0.65468,5.11815 1,10.33013 1,15.625 0,5.11144 -0.32676,10.14248 -0.9375,15.09375 l -14.46875,0 a 1.9914165,1.9914165 0 0 0 -0.21875,0 1.9914165,1.9914165 0 0 0 -1.78125,2 l 0.25,45.40625 c -21.78949,36.71298 -62.17404,61.43748 -108.5,61.43748 -46.4979,0 -86.99646,-24.9052 -108.718749,-61.84373 l 0.28125,-45 a 1.9914165,1.9914165 0 0 0 -2,-2 l -14.25,0 c -0.61042,-4.95127 -0.9375,-9.98231 -0.9375,-15.09375 0,-5.29539 0.345376,-10.5063 1,-15.625 l 14.1875,0 a 1.9914165,1.9914165 0 0 0 2,-2 l -0.28125,-44.4375 c 21.735633,-36.79541 62.246749,-61.5 108.718749,-61.5 z m 112.46875,68.3125 c 5.61335,11.04471 9.58579,23.02283 11.625,35.65625 l -11.875,0 0.25,-35.65625 z m -225.124999,0.40625 0.21875,35.25 -11.625,0 c 2.015278,-12.46776 5.906775,-24.32609 11.40625,-35.25 z m -11.5,73.90625 11.71875,0 -0.21875,35.8125 c -5.566049,-11.10203 -9.516136,-23.14717 -11.5,-35.8125 z m 236.374999,0 11.96875,0 c -2.01102,12.832 -6.03334,25.0269 -11.71875,36.25 l -0.25,-36.25 z"
       id="path4445"
       inkscape:connector-curvature="0" />
    <path
       sodipodi:type="arc"
       style="fill:#000000;fill-opacity:0.09803922;stroke:none"
       id="path3896"
       sodipodi:cx="18.34375"
       sodipodi:cy="23.84375"
       sodipodi:rx="1.8125"
       sodipodi:ry="1.8125"
       d="m 20.15625,23.84375 a 1.8125,1.8125 0 1 1 -3.625,0 1.8125,1.8125 0 1 1 3.625,0 z"
       transform="matrix(11.476757,0,0,11.476757,-110.41962,651.78544)" />
    <path
       sodipodi:type="arc"
       style="fill:#000000;fill-opacity:0.09803922;stroke:none"
       id="path3896-6"
       sodipodi:cx="18.34375"
       sodipodi:cy="23.84375"
       sodipodi:rx="1.8125"
       sodipodi:ry="1.8125"
       d="m 20.15625,23.84375 a 1.8125,1.8125 0 1 1 -3.625,0 1.8125,1.8125 0 1 1 3.625,0 z"
       transform="matrix(-11.476757,0,0,11.476757,432.57445,651.78544)" />
    <path
       transform="matrix(-3.2426932,0,0,3.2426932,220.56056,848.55214)"
       d="m 20.15625,23.84375 a 1.8125,1.8125 0 1 1 -3.625,0 1.8125,1.8125 0 1 1 3.625,0 z"
       sodipodi:ry="1.8125"
       sodipodi:rx="1.8125"
       sodipodi:cy="23.84375"
       sodipodi:cx="18.34375"
       id="path4451"
       style="fill:#000000;fill-opacity:0.09803922;stroke:none"
       sodipodi:type="arc" />
  </g>
</svg>
